<?xml version="1.0" standalone="no"?>
<!DOCTYPE svg PUBLIC "-//W3C//DTD SVG 20010904//EN"
 "http://www.w3.org/TR/2001/REC-SVG-20010904/DTD/svg10.dtd">
<svg version="1.0" xmlns="http://www.w3.org/2000/svg"
 width="260.000000pt" height="260.000000pt" viewBox="0 0 260.000000 260.000000"
 preserveAspectRatio="xMidYMid meet">
<metadata>
Created by potrace 1.11, written by Peter Selinger 2001-2013
</metadata>
<g transform="translate(0.000000,260.000000) scale(0.100000,-0.100000)"
fill="#000000" stroke="none">
<path d="M1045 2570 c-422 -85 -772 -371 -939 -766 -70 -166 -97 -306 -97
-505 0 -166 20 -289 72 -436 132 -374 447 -677 827 -797 245 -77 558 -75 796
5 324 108 589 335 744 636 100 195 142 370 142 593 0 355 -127 666 -374 914
-183 184 -405 303 -666 356 -130 27 -374 27 -505 0z m324 -464 c27 -14 51 -53
51 -82 0 -28 -28 -70 -55 -82 -42 -19 -74 -14 -106 17 -40 41 -40 91 0 132 33
32 67 37 110 15z m-11 -308 c9 -9 12 -154 12 -593 0 -509 -2 -583 -16 -603
-19 -28 -55 -28 -80 -1 -18 20 -19 41 -16 490 2 258 2 469 -1 469 -3 0 -171
-205 -373 -456 l-367 -455 -36 3 c-28 2 -39 9 -49 31 -12 24 -11 31 5 56 10
15 206 263 437 549 364 454 422 522 445 522 15 0 32 -5 39 -12z m625 -17 c151
-60 238 -187 239 -351 0 -54 -5 -91 -21 -132 -26 -67 -103 -156 -166 -193 -68
-40 -184 -65 -303 -65 -117 0 -142 11 -142 60 0 48 23 57 161 62 109 4 133 8
185 32 111 51 168 129 168 231 1 83 -25 146 -81 195 -70 61 -113 70 -344 70
-193 0 -198 1 -213 22 -22 31 -20 45 9 74 l26 26 212 -4 c192 -4 217 -6 270
-27z"/>
</g>
</svg>
